<?xml version="1.0" standalone="no"?>
<!DOCTYPE svg PUBLIC "-//W3C//DTD SVG 20010904//EN"
 "http://www.w3.org/TR/2001/REC-SVG-20010904/DTD/svg10.dtd">
<svg version="1.0" xmlns="http://www.w3.org/2000/svg"
 width="700.000000pt" height="700.000000pt" viewBox="0 0 700.000000 700.000000"
 preserveAspectRatio="xMidYMid meet">
<metadata>
Created by potrace 1.14, written by Peter Selinger 2001-2017
</metadata>
<g transform="translate(0.000000,700.000000) scale(0.100000,-0.100000)"
fill="#000000" stroke="none">
<path d="M5695 6400 c-288 -50 -528 -196 -702 -426 -124 -165 -187 -314 -218
-516 -12 -80 -12 -251 -1 -325 83 -525 524 -923 1051 -949 55 -3 124 -9 152
-15 29 -6 55 -10 58 -9 3 0 29 -11 58 -27 141 -74 241 -203 273 -354 10 -51 6
-157 -10 -219 -15 -59 -71 -170 -86 -170 -3 0 -28 30 -55 67 -103 139 -320
334 -483 430 -94 56 -251 126 -377 168 -81 27 -260 60 -380 71 -16 1 -374 3
-795 3 l-765 1 0 998 0 997 -23 43 c-51 95 -129 145 -233 149 -113 3 -130 -9
-435 -314 l-269 -270 -90 43 c-152 71 -246 102 -430 140 -53 10 -348 13 -415
3 -169 -24 -332 -75 -477 -148 l-80 -40 -264 265 c-145 146 -284 277 -309 292
-39 23 -56 27 -125 27 -69 0 -86 -4 -127 -27 -25 -16 -60 -45 -77 -65 -65 -79
-62 -24 -58 -1170 2 -571 7 -1054 11 -1073 4 -19 16 -78 27 -130 45 -222 135
-438 267 -645 133 -207 380 -453 559 -556 l41 -23 -59 -64 c-77 -82 -125 -176
-145 -287 -4 -22 -8 -229 -8 -460 l-1 -420 -195 -5 c-193 -5 -196 -5 -262 -37
-86 -41 -161 -116 -201 -202 -31 -65 -31 -68 -32 -231 0 -184 5 -203 73 -268
71 -70 38 -67 740 -68 641 -2 677 0 739 35 13 7 29 3 58 -12 40 -22 43 -22
680 -22 702 0 688 -1 787 61 39 25 42 25 260 26 l220 0 26 -25 c15 -14 47 -35
71 -46 43 -19 66 -19 780 -17 703 3 740 4 821 24 175 42 304 97 443 189 93 62
258 227 322 322 27 41 71 97 98 125 73 76 166 205 227 314 30 53 55 99 56 102
0 3 11 28 23 55 48 105 103 283 116 377 3 24 8 50 10 58 29 108 21 429 -15
592 -7 36 -7 38 52 85 192 153 335 393 386 643 26 127 23 349 -6 470 -62 259
-215 489 -432 650 -127 94 -310 173 -450 196 -14 2 -39 6 -56 9 -17 3 -75 8
-130 10 -125 7 -215 33 -295 88 -257 172 -293 531 -76 751 96 96 195 138 360
150 91 7 151 36 214 101 78 81 103 180 73 292 -26 95 -80 159 -170 201 -70 33
-174 37 -315 12z"/>
</g>
</svg>
